<?xml version="1.0" encoding="UTF-8"?>
<svg width="48" height="48" viewBox="0 0 48 48" fill="none" xmlns="http://www.w3.org/2000/svg">
  <circle cx="24" cy="24" r="23" fill="#4d94ff"/>
  <g transform="translate(8, 8)">
    <!-- Silhouette -->
    <path d="M16 4c3.9 0 7 3.1 7 7 0 1.9-.8 3.7-2 5v4c0 2.2-1.8 4-4 4h-2c-2.2 0-4-1.8-4-4v-4c-1.2-1.3-2-3.1-2-5 0-3.9 3.1-7 7-7z" fill="black"/>
    <!-- Spray bottle -->
    <path d="M14 12h4v6c0 1.1-.9 2-2 2s-2-.9-2-2v-6z" fill="black"/>
    <!-- Spray mist -->
    <circle cx="8" cy="8" r="1" fill="white"/>
    <circle cx="6" cy="10" r="1" fill="white"/>
    <circle cx="10" cy="6" r="1" fill="white"/>
    <!-- Stars -->
    <path d="M27 5l1 2 2 1-2 1-1 2-1-2-2-1 2-1z" fill="white"/>
    <path d="M24 2l.5 1 1 .5-1 .5-.5 1-.5-1-1-.5 1-.5z" fill="white"/>
  </g>
</svg>